# xmcd
#
# Track frame offsets:
#	150
#	14119
#	33088
#	60539
#	81557
#	105957
#	129231
#	148714
#	174816
#	197162
#	219496
#	243508
#	271472
#	299431
#	320494
#
# Disc length: 4577 seconds
#
# Revision: 1
# Processed by: cddbd v1.5.2PL0 Copyright (c) Steve Scherf et al.
# Submitted via: audiograbber 1.83.01
#
DISCID=da11df0f
DTITLE=Claudia Koreck - Live
DYEAR=2016
DGENRE=Singer-Songwriter
TTITLE0=Unter meiner Deckn
TTITLE1=Greece
TTITLE2=Fliang
TTITLE3=Sommerdog
TTITLE4=Bunter Vogel
TTITLE5=Erwachsen
TTITLE6=Stadt Land Fluss
TTITLE7=Lila Lem
TTITLE8=Danzn
TTITLE9=Ewige Lem
TTITLE10=Wenn i di ned hätt
TTITLE11=Schwarz
TTITLE12=I mog de Dog
TTITLE13=Olivia
TTITLE14=Omalied
EXTD=
EXTT0=
EXTT1=
EXTT2=
EXTT3=
EXTT4=
EXTT5=
EXTT6=
EXTT7=
EXTT8=
EXTT9=
EXTT10=
EXTT11=
EXTT12=
EXTT13=
EXTT14=
PLAYORDER=
